<svg width="12" height="18" viewBox="0 0 12 18" fill="none" xmlns="http://www.w3.org/2000/svg">
<path d="M4.78083 10.893L4.7652 10.9055C4.7652 11.443 4.71208 11.9837 4.55895 12.5024C4.40926 13.0302 4.1527 13.5274 4.01864 14.0618C3.76239 15.1055 4.05614 16.2177 4.56551 17.1368C3.45926 16.7618 2.40301 16.2209 1.60926 15.3462C0.915201 14.5805 0.424888 13.6649 0.203013 12.6559C-0.0879248 11.3309 0.112388 10.0212 0.678013 8.80273C0.946763 8.22742 1.24989 7.66492 1.44676 7.05898C1.64051 6.45898 1.75926 5.83398 1.86895 5.21523C2.27208 5.82461 2.56864 6.4968 2.74395 7.20586C4.11583 5.36836 4.86583 3.14023 4.88458 0.849609C6.99395 2.05555 8.45957 4.13398 8.89707 6.52461C9.45989 5.77461 9.54114 4.82148 9.46895 3.91211C9.67208 4.15305 9.87551 4.39648 10.0564 4.65273C11.4818 6.67461 12.263 9.22773 11.7943 11.6965C11.5599 12.9309 11.0064 14.0965 10.1911 15.0493C9.40051 15.9743 8.35364 16.6434 7.25989 17.1496C7.52239 16.6368 7.74426 16.1024 7.91895 15.5555C8.63457 13.3149 7.82207 10.7309 6.07207 9.19617C6.31301 9.8493 6.41301 10.5555 6.32551 11.2493C6.23176 11.9805 5.90051 12.6646 5.60333 13.3302C5.44333 12.4584 5.33395 11.6149 4.78083 10.893Z" fill="white"/>
</svg>
